<?xml version="1.0" encoding="UTF-8"?><svg id="Layer_1" xmlns="http://www.w3.org/2000/svg" width="598.8526" height="555.0777" viewBox="0 0 598.8526 555.0777"><path d="M254.0762,387.9878c0,4.1895,0,7.6348.2187,9.4668.1299,1.2695.3936,2.2266,1.7022,2.4043.6113.086,1.5703.1719,1.9639.1719.2617,0,.3496.1308.3496.2637,0,.2168-.2198.3476-.6993.3476-2.3994,0-5.1494-.1308-5.3662-.1308-.2197,0-2.9677.1308-4.2783.1308-.4795,0-.6982-.0859-.6982-.3476,0-.1329.0888-.2637.3486-.2637.3936,0,.918-.0859,1.3106-.1719.873-.1777,1.0908-1.1348,1.2656-2.4043.2178-1.832.2178-5.2773.2178-9.4668v-18.4629l-6.459.0918c-2.7051.0391-3.752.3496-4.4502,1.3965-.4805.7383-.6123,1.0469-.7422,1.3516-.1299.3476-.2627.4355-.4375.4355-.1309,0-.2168-.1328-.2168-.3926,0-.4375.873-4.1875.959-4.5371.0888-.2636.2627-.83.4375-.83.3047,0,.7412.4355,1.9199.5214,1.2646.1309,2.9228.2188,3.4473.2188h16.3642c1.3965,0,2.4004-.0879,3.0996-.2188.6543-.0859,1.0459-.2168,1.2207-.2168.2178,0,.2178.2618.2178.5254,0,1.3067-.1299,4.3203-.1299,4.7969,0,.3965-.1299.5703-.3047.5703-.2197,0-.3066-.1308-.3496-.7422l-.0439-.4804c-.1309-1.3106-1.1778-2.3125-5.3672-2.3985l-5.5-.0918v18.4629Z" fill="#fff"/><path d="M315.4844,387.9878c0,4.1895,0,7.6348.2187,9.4668.1299,1.2695.3907,2.2266,1.7002,2.4043.6133.086,1.5723.1719,1.9639.1719.2627,0,.3486.1308.3486.2637,0,.2168-.2177.3476-.6982.3476-2.3984,0-5.1494-.1308-5.3682-.1308-.2177,0-2.9638.1308-4.2754.1308-.4794,0-.6992-.0859-.6992-.3476,0-.1329.0879-.2637.3496-.2637.3955,0,.917-.0859,1.3116-.1719.8691-.1777,1.0869-1.1348,1.2646-2.4043.2178-1.832.2178-5.2773.2178-9.4668v-4.584c0-.1718-.1328-.2617-.2637-.2617h-18.5019c-.1309,0-.2608.043-.2608.2617v4.584c0,4.1895,0,7.6348.2188,9.4668.1298,1.2695.3916,2.2266,1.7002,2.4043.6113.086,1.5722.1719,1.9648.1719.2607,0,.3496.1308.3496.2637,0,.2168-.2187.3476-.6982.3476-2.4004,0-5.1514-.1308-5.3692-.1308-.2168,0-2.9668.1308-4.2754.1308-.4804,0-.6992-.0859-.6992-.3476,0-.1329.0879-.2637.3496-.2637.3926,0,.917-.0859,1.3086-.1719.874-.1777,1.0908-1.1348,1.2656-2.4043.2188-1.832.2188-5.2773.2188-9.4668v-7.6797c0-6.8125,0-8.0312-.0879-9.4277-.0869-1.4824-.4355-2.1797-1.876-2.4902-.3496-.084-1.0908-.1289-1.4834-.1289-.1738,0-.3486-.0879-.3486-.2598,0-.2617.2168-.3477.6982-.3477,1.9629,0,4.7129.127,4.9297.127.2178,0,2.9688-.127,4.2774-.127.4804,0,.6992.086.6992.3477,0,.1719-.1758.2598-.3496.2598-.3057,0-.5684.0449-1.0928.1289-1.1787.2187-1.5264.9648-1.6133,2.4902-.0869,1.3965-.0869,2.6152-.0869,9.4277v.916c0,.2168.1299.2637.2608.2637h18.5019c.1309,0,.2637-.0469.2637-.2637v-.916c0-6.8125,0-8.0312-.086-9.4277-.0888-1.4824-.4375-2.1797-1.8779-2.4902-.3486-.084-1.0918-.1289-1.4814-.1289-.1778,0-.3496-.0879-.3496-.2598,0-.2617.2168-.3477.6982-.3477,1.9639,0,4.71.127,4.9277.127.2188,0,2.9698-.127,4.2784-.127.4785,0,.6982.086.6982.3477,0,.1719-.1748.2598-.3496.2598-.3067,0-.5693.0449-1.0899.1289-1.1796.2187-1.5273.9648-1.6152,2.4902-.0869,1.3965-.0869,2.6152-.0869,9.4277v7.6797Z" fill="#fff"/><path d="M345.2129,380.3081c0-6.8125,0-8.0312-.0908-9.4277-.0879-1.4824-.4365-2.1797-1.874-2.4902-.3487-.084-1.0928-.1289-1.4864-.1289-.1728,0-.3496-.0879-.3496-.2598,0-.2617.2207-.3477.6992-.3477,1.0059,0,2.1846,0,3.1426.0391l1.791.0879c.3028,0,8.9903,0,9.9922-.041.8301-.0469,1.5293-.1328,1.877-.2168.2178-.0469.3955-.2207.6133-.2207.1308,0,.1709.1738.1709.3906,0,.3086-.2178.8301-.3487,2.0566-.04.4317-.1318,2.3516-.2177,2.8789-.0459.2168-.1319.4786-.3038.4786-.2617,0-.3486-.2168-.3486-.5664,0-.3086-.0449-1.0469-.2627-1.5723-.3047-.6992-.7451-1.2188-3.0967-1.4824-.7441-.0879-5.5-.1309-5.9814-.1309-.1768,0-.2617.1309-.2617.4336v12.0469c0,.3027.0449.4355.2617.4355.5674,0,5.9346,0,6.9375-.0859,1.0469-.0918,1.6601-.1777,2.0537-.6133.3047-.3477.4805-.5664.6523-.5664.1319,0,.2178.0879.2178.3496,0,.2637-.2178,1.002-.3486,2.4434-.085.8711-.1719,2.4843-.1719,2.7929,0,.3496,0,.8301-.3096.8301-.2177,0-.3027-.1777-.3027-.3945,0-.4356,0-.8692-.1768-1.4414-.1718-.6094-.5673-1.3516-2.2675-1.5235-1.1787-.1328-5.4991-.2226-6.2393-.2226-.2217,0-.3066.1308-.3066.3066v3.8418c0,1.4844-.042,6.5469,0,7.4629.1308,3.0117.7832,3.5781,5.0634,3.5781,1.1329,0,3.0508,0,4.1895-.4824,1.1338-.4785,1.6553-1.3496,1.9639-3.1406.0849-.4824.1718-.6524.3896-.6524.2617,0,.2617.3477.2617.6524,0,.3476-.3476,3.3183-.5664,4.2344-.3027,1.1328-.6513,1.1328-2.3574,1.1328-3.2734,0-5.6728-.084-7.3721-.1309-1.7041-.0859-2.7519-.1308-3.4043-.1308-.0859,0-.83,0-1.7451.0449-.875,0-1.8789.0859-2.5322.0859-.4814,0-.6982-.0859-.6982-.3476,0-.1329.0859-.2637.3486-.2637.3896,0,.916-.0859,1.3076-.1719.874-.1777,1.0918-1.1348,1.2676-2.4043.2197-1.832.2197-5.2773.2197-9.4668v-7.6797Z" fill="#fff"/><path d="M155.2237,534.1304c0-6.8047,0-8.0293-.087-9.4277-.0879-1.4805-.4365-2.1797-1.8759-2.4805-.3496-.0879-1.0918-.1348-1.4854-.1348-.1738,0-.3486-.084-.3486-.2617,0-.2637.2187-.3496.6982-.3496,1.9639,0,4.7129.1309,4.9317.1309,1.0468,0,2.748-.1309,4.7568-.1309,7.1572,0,8.7285,4.3672,8.7285,6.5488,0,3.5762-2.0527,5.7168-4.1035,7.8516,3.2305,1.0059,7.5498,4.1035,7.5498,9.209,0,4.6679-3.666,9.5156-11.127,9.5156-.4814,0-1.8779-.0898-3.1416-.1309-1.2666-.0918-2.4892-.1328-2.663-.1328-.0879,0-.8291,0-1.7461.041-.8721,0-1.875.0918-2.5303.0918-.4815,0-.6992-.0918-.6992-.3496,0-.1308.0879-.2617.3496-.2617.3926,0,.916-.0879,1.3086-.1777.874-.1719,1.0928-1.1348,1.2666-2.3985.2178-1.83.2178-5.2832.2178-9.4707v-7.6816ZM158.7149,535.0913c0,.3086.0869.3965.3056.4825.2617.0449,1.0479.1777,2.6621.1777,2.4434,0,3.0547-.0938,3.9707-1.1406.917-1.0469,1.5723-2.6153,1.5723-4.4063,0-3.623-1.6152-7.5039-5.8926-7.5039-.4804,0-1.3965.041-2.0947.2188-.3926.0859-.5234.2168-.5234.4785v11.6933ZM158.7149,539.7163c0,3.3653,0,8.7735.0429,9.4278.1309,2.1386.1309,2.7519,1.4854,3.4023,1.1767.5684,3.0527.6582,3.8398.6582,2.3555,0,6.1524-1.2676,6.1524-6.1972,0-2.6211-.8721-6.4141-4.2325-8.7286-1.4843-1.0058-2.5751-1.1328-3.623-1.2636-.5664-.0918-2.749-.0918-3.4033-.0918-.1748,0-.2617.0918-.2617.3086v2.4843Z" fill="#fff"/><path d="M196.8623,534.1304c0-6.8047,0-8.0293-.0879-9.4277-.0869-1.4805-.4365-2.1797-1.875-2.4805-.3496-.0879-1.0918-.1348-1.4863-.1348-.1738,0-.3486-.084-.3486-.2617,0-.2637.2187-.3496.6982-.3496,1.9649,0,4.6279.1309,5.0195.1309s3.0108-.1309,4.3204-.1309c.4795,0,.6982.0859.6982.3496,0,.1777-.1738.2617-.3486.2617-.3057,0-.5674.0469-1.0918.1348-1.1778.1699-1.5264.9609-1.6153,2.4805-.0859,1.3984-.0859,2.623-.0859,9.4277v6.1113c0,6.2871,1.3965,8.9922,3.2725,10.7774,2.1386,2.0097,4.1015,2.4043,6.5888,2.4043,2.6621,0,5.2813-1.2657,6.8516-3.1407,2.0078-2.4902,2.5312-6.2011,2.5312-10.6914v-5.4609c0-6.8047,0-8.0293-.0869-9.4277-.0869-1.4805-.4365-2.1797-1.876-2.4805-.3486-.0879-1.0917-.1348-1.4853-.1348-.1738,0-.3486-.084-.3486-.2617,0-.2637.2187-.3496.6982-.3496,1.9639,0,4.3643.1309,4.627.1309.3046,0,2.3554-.1309,3.666-.1309.4795,0,.6982.0859.6982.3496,0,.1777-.1748.2617-.3496.2617-.3066,0-.5684.0469-1.0918.1348-1.1777.2617-1.5264.9609-1.6152,2.4805-.086,1.3984-.086,2.623-.086,9.4277v4.6719c0,4.7129-.5234,9.9511-4.0146,13.0468-3.1416,2.793-6.416,3.2286-8.9902,3.2286-1.4834,0-5.8916-.1719-8.9893-3.0977-2.1387-2.0488-3.7969-5.1035-3.7969-11.4746v-6.375Z" fill="#fff"/><path d="M253.4688,541.812c0,4.1875,0,7.6407.2177,9.4707.1319,1.2637.3936,2.2266,1.7032,2.3985.6103.0898,1.5703.1777,1.9629.1777.2627,0,.3486.1309.3486.2617,0,.2168-.2178.3496-.6973.3496-2.3994,0-5.1484-.1328-5.3681-.1328-.2178,0-2.9668.1328-4.2764.1328-.4805,0-.6982-.0918-.6982-.3496,0-.1308.0878-.2617.3496-.2617.3916,0,.916-.0879,1.3086-.1777.873-.1719,1.0918-1.1348,1.2666-2.3985.2168-1.83.2168-5.2832.2168-9.4707v-7.6816c0-6.8047,0-8.0293-.087-9.4277-.0869-1.4805-.5234-2.2188-1.4834-2.4414-.4804-.127-1.0468-.1739-1.3535-.1739-.1748,0-.3496-.084-.3496-.2617,0-.2637.2197-.3496.6992-.3496,1.4405,0,4.1895.1309,4.4073.1309.2197,0,2.9687-.1309,4.2773-.1309.4805,0,.6982.0859.6982.3496,0,.1777-.1748.2617-.3486.2617-.3066,0-.5674.0469-1.0908.1348-1.1787.2168-1.5283.9609-1.6152,2.4805-.0879,1.3984-.0879,2.623-.0879,9.4277v7.6816Z" fill="#fff"/><path d="M286.8584,541.9019c0,6.418.1748,9.2109.96,9.9941.6982.6973,1.832,1.002,5.2363,1.002,2.3135,0,4.2324-.041,5.2803-1.3125.5664-.6973,1.0029-1.7852,1.1338-2.6153.0439-.3476.1308-.5664.3935-.5664.2188,0,.2617.1719.2617.6524s-.3066,3.1015-.6552,4.3672c-.3057,1.0019-.4346,1.1777-2.7491,1.1777-3.1416,0-5.4111-.0898-7.2431-.1309-1.833-.0918-3.1856-.1328-4.4512-.1328-.1748,0-.917.041-1.79.041-.8731.0469-1.8321.0918-2.4873.0918-.4805,0-.6983-.0918-.6983-.3496,0-.1308.0879-.2617.3487-.2617.3925,0,.916-.0879,1.3095-.1777.8731-.1719,1.0918-1.1348,1.2666-2.3985.2168-1.83.2168-5.2832.2168-9.4707v-7.6816c0-6.8047,0-8.0293-.0869-9.4277-.0869-1.4805-.4355-2.1797-1.875-2.4805-.3496-.0879-1.0918-.1348-1.4853-.1348-.1748,0-.3496-.084-.3496-.2617,0-.2637.2187-.3496.6982-.3496,1.9639,0,4.7129.1309,4.9326.1309.2178,0,3.4033-.1309,4.7119-.1309.4795,0,.6992.0859.6992.3496,0,.1777-.1748.2617-.3496.2617-.3047,0-.917.0469-1.4404.1348-1.2656.2168-1.6133.9609-1.7012,2.4805-.0869,1.3984-.0869,2.623-.0869,9.4277v7.7715Z" fill="#fff"/><path d="M323.2119,534.1304c0-6.8047,0-8.0293-.0859-9.4277-.0859-1.4805-.4346-2.1797-1.8779-2.4805-.3477-.0879-1.0889-.1348-1.4815-.1348-.1777,0-.3496-.084-.3496-.2617,0-.2637.2188-.3496.6992-.3496,1.9629,0,4.711.1309,4.9297.1309.5244,0,3.2715-.1309,5.8916-.1309,4.3223,0,12.3057-.3887,17.4981,4.9746,2.1865,2.2695,4.2353,5.8926,4.2353,11.0859,0,5.5-2.2666,9.7344-4.7099,12.3047-1.878,1.9688-5.8077,5.0176-13.2286,5.0176-1.8769,0-4.1884-.1308-6.0654-.2578-1.917-.1309-3.4014-.2637-3.6211-.2637-.0869,0-.8262,0-1.7441.041-.874,0-1.875.0918-2.5332.0918-.4815,0-.6983-.0918-.6983-.3496,0-.1308.0889-.2617.3487-.2617.3955,0,.916-.0879,1.3105-.1777.8731-.1719,1.0938-1.1348,1.2656-2.3985.2168-1.83.2168-5.2832.2168-9.4707v-7.6816ZM326.8809,538.8472c0,4.625.04,8.6406.0859,9.4727.0449,1.0859.1309,2.832.4805,3.3125.5654.83,2.2676,1.7441,7.417,1.7441,4.0586,0,7.8125-1.4805,10.3896-4.0547,2.2657-2.2266,3.4912-6.418,3.4912-10.4297,0-5.5449-2.4033-9.123-4.1914-10.998-4.1035-4.3223-9.0761-4.9356-14.2705-4.9356-.873,0-2.4863.1328-2.8359.3106-.3955.1699-.5264.3886-.5264.8691-.04,1.4883-.04,5.9356-.04,9.293v5.416Z" fill="#fff"/><path d="M377.4229,534.1304c0-6.8047,0-8.0293-.0869-9.4277-.0909-1.4805-.4385-2.1797-1.877-2.4805-.3486-.0879-1.0928-.1348-1.4824-.1348-.1768,0-.3487-.084-.3487-.2617,0-.2637.2178-.3496.6983-.3496,1.001,0,2.1807,0,3.1416.0469l1.7871.084c.3086,0,8.9902,0,9.9922-.045.8301-.039,1.5283-.1269,1.8779-.2168.2178-.041.3936-.2187.6113-.2187.1319,0,.1719.1777.1719.3965,0,.3027-.2178.8301-.3496,2.0488-.04.4356-.1269,2.3574-.2158,2.8789-.042.2207-.1328.4805-.3047.4805-.2627,0-.3496-.2188-.3496-.5664,0-.3028-.0449-1.0469-.2627-1.5684-.3037-.6992-.7383-1.2246-3.0967-1.4863-.7441-.0879-5.5-.127-5.9804-.127-.1719,0-.2627.127-.2627.4317v12.0429c0,.3086.0449.4414.2627.4414.5664,0,5.9355,0,6.9423-.0898,1.0469-.0879,1.6543-.1738,2.0479-.6094.3047-.3476.4814-.5703.6543-.5703.1318,0,.2168.0918.2168.3496,0,.2617-.2168,1.0059-.3496,2.4434-.085.875-.1719,2.4883-.1719,2.793,0,.3476,0,.83-.3027.83-.2227,0-.3086-.1738-.3086-.3906,0-.4394,0-.875-.1719-1.4414-.1777-.6113-.5674-1.3516-2.2734-1.5293-1.1778-.1309-5.4991-.2168-6.2364-.2168-.2187,0-.3095.1328-.3095.3047v3.8398c0,1.4864-.0401,6.5469,0,7.4629.1308,3.0098.789,3.5821,5.0654,3.5821,1.1328,0,3.0557,0,4.1875-.4825,1.1338-.4785,1.6611-1.3554,1.9639-3.1406.0859-.4805.1767-.6582.3945-.6582.2588,0,.2588.3496.2588.6582,0,.3496-.3496,3.3125-.5674,4.2285-.3027,1.1387-.6524,1.1387-2.3516,1.1387-3.2744,0-5.6767-.0898-7.3789-.1309-1.6992-.0918-2.747-.1328-3.4033-.1328-.0869,0-.8311,0-1.7461.041-.8701,0-1.8769.0918-2.5312.0918-.4795,0-.6973-.0918-.6973-.3496,0-.1308.0859-.2617.3496-.2617.3945,0,.915-.0879,1.3105-.1777.8692-.1719,1.0879-1.1348,1.2647-2.3985.2178-1.83.2178-5.2832.2178-9.4707v-7.6816Z" fill="#fff"/><path d="M418.2285,534.1304c0-6.8047,0-8.0293-.0859-9.4277-.0869-1.4805-.4355-2.1797-1.8779-2.4805-.3487-.0879-1.0879-.1348-1.4815-.1348-.1728,0-.3496-.084-.3496-.2617,0-.2637.2178-.3496.6983-.3496,1.9628,0,4.7168.1309,4.9326.1309.4814,0,3.7949-.1309,5.1465-.1309,2.7519,0,5.6767.2637,7.9892,1.9219,1.0879.7851,3.0108,2.9258,3.0108,5.9355,0,3.2285-1.3516,6.4571-5.2832,10.0801,3.582,4.584,6.5468,8.4648,9.0781,11.1699,2.3574,2.4903,4.2334,2.9707,5.3271,3.1446.8252.1308,1.4375.1308,1.6992.1308.2188,0,.3965.1309.3965.2617,0,.2578-.2646.3496-1.0478.3496h-3.1026c-2.4423,0-3.5302-.2168-4.6699-.83-1.8769-1.0078-3.3994-3.1426-5.8896-6.4141-1.8311-2.4004-3.8858-5.3242-4.7559-6.4629-.1767-.1699-.3086-.2578-.5664-.2578l-5.3682-.0898c-.2168,0-.3086.1308-.3086.3476v1.0488c0,4.1875,0,7.6407.2217,9.4707.127,1.2637.3897,2.2266,1.7022,2.3985.6113.0898,1.5674.1777,1.9619.1777.2627,0,.3486.1309.3486.2617,0,.2168-.2168.3496-.6982.3496-2.3985,0-5.1504-.1328-5.3672-.1328-.04,0-2.794.1328-4.1035.1328-.4766,0-.6983-.0918-.6983-.3496,0-.1308.0899-.2617.3487-.2617.3955,0,.9209-.0879,1.3105-.1777.876-.1719,1.0938-1.1348,1.2647-2.3985.2177-1.83.2177-5.2832.2177-9.4707v-7.6816ZM421.7197,537.9312c0,.2168.0918.3887.3086.5195.6524.3965,2.6612.6992,4.5801.6992,1.0459,0,2.2705-.1308,3.2725-.83,1.5283-1.0469,2.6621-3.3985,2.6621-6.7188,0-5.4551-2.8809-8.7285-7.5498-8.7285-1.3057,0-2.4844.1328-2.9248.2637-.2168.0859-.3487.2617-.3487.5214v14.2735Z" fill="#fff"/><path d="M8.4004,452.7925c0-12.6445,0-14.9726-.165-17.6348-.168-2.8261-.833-4.1582-3.5782-4.7402-.665-.168-2.0791-.248-3.2431-.248-.9151,0-1.4141-.1641-1.4141-.7481,0-.582.5821-.748,1.8301-.748,4.4082,0,9.6484.248,11.3105.248,4.0752,0,7.3194-.248,10.1465-.248,15.0537,0,17.7149,8.0644,17.7149,12.4707,0,6.8203-3.9082,10.8984-8.4834,14.5566,6.8203,2.3281,15.1367,8.2324,15.1367,17.9629,0,8.9004-6.9024,18.1348-22.2051,18.1348-.998,0-3.4101-.1641-5.8223-.2481-2.4941-.1679-4.9902-.248-6.2373-.248-.914,0-2.7451,0-4.7412.0801-1.9121,0-4.0752.1679-5.7373.1679-1.082,0-1.665-.248-1.665-.8301,0-.416.334-.6699,1.331-.6699,1.2481,0,2.2461-.1679,2.9952-.332,1.6621-.3301,2.0781-2.1621,2.4111-4.5762.416-3.4961.416-10.0625.416-17.7129v-14.6367ZM18.3809,454.2046c0,.666.249.8301.581.9141.7491.1679,1.9971.248,3.9102.248,2.7441,0,4.5742-.332,5.9883-1.5761,2.1621-1.7481,3.4092-4.7422,3.4092-8.8165,0-5.5742-3.2432-12.8925-10.3965-12.8925-1.1641,0-1.9121,0-2.7432.1699-.584.1601-.749.4941-.749,1.4101v20.543ZM29.3594,460.857c-1.7471-1.2442-3.6602-1.8321-6.9033-1.9942-1.4971-.084-2.3282-.084-3.5762-.084-.334,0-.499.1641-.499.5801v19.7129c0,5.4902.249,6.9063,2.9101,7.9844,2.2461.916,4.1592,1.0019,6.0713,1.0019,3.7432,0,10.0645-1.998,10.0645-10.6504,0-5.1562-1.7471-12.1445-8.0674-16.5507Z" fill="#fff"/><path d="M75.9365,467.4292c0,10.6446,0,16.3828,1.7471,17.8828,1.4121,1.2481,3.5752,1.8321,10.0625,1.8321,4.4072,0,7.6514-.0879,9.7305-2.3301.998-1.082,1.9961-3.416,2.1631-4.9922.082-.75.249-1.25.914-1.25.583,0,.666.4141.666,1.416,0,.916-.5839,7.1563-1.248,9.5664-.499,1.8282-.915,2.2442-5.2393,2.2442-5.9892,0-10.3134-.1641-14.0566-.2481-3.7412-.1679-6.7354-.248-10.1455-.248-.9141,0-2.7451,0-4.7412.0801-1.9121,0-4.0742.1679-5.7383.1679-1.0801,0-1.6621-.248-1.6621-.8301,0-.416.331-.6699,1.331-.6699,1.2471,0,2.2452-.1679,2.9922-.332,1.6641-.3301,2.0791-2.1621,2.4121-4.5762.4161-3.4961.4161-10.0625.4161-17.7129v-14.6367c0-12.6445,0-14.9726-.167-17.6348-.1651-2.8261-.8311-4.1582-3.5752-4.7402-.666-.168-1.6641-.248-2.7442-.248-.916,0-1.414-.1641-1.414-.7481,0-.582.582-.748,1.8291-.748,3.9082,0,9.1484.248,11.3945.248,1.9961,0,8.0674-.248,11.3105-.248,1.1641,0,1.7471.166,1.7471.748,0,.584-.5.7481-1.498.7481-.9151,0-2.2451.08-3.2432.248-2.2451.416-2.9111,1.834-3.0781,4.7402-.1651,2.6622-.1651,4.9903-.1651,17.6348v14.6367Z" fill="#fff"/><path d="M110.6231,452.7925c0-12.6445,0-14.9726-.167-17.6348-.166-2.8261-.8311-4.1582-3.5762-4.7402-.665-.168-2.0801-.248-3.2432-.248-.916,0-1.414-.1641-1.414-.7481,0-.582.582-.748,1.8291-.748,4.4082,0,9.6494.248,12.1426.248,1.996,0,7.2363-.248,10.2304-.248,1.2481,0,1.8301.166,1.8301.748,0,.584-.5.7481-1.3311.7481-.916,0-1.414.08-2.4121.248-2.2451.416-2.9111,1.834-3.0771,4.7402-.166,2.6622-.166,4.9903-.166,17.6348v11.6406c0,12.0567,2.4121,17.1328,6.4863,20.461,3.7432,3.0781,7.5684,3.4121,10.3965,3.4121,3.6592,0,8.1514-1.1621,11.4775-4.4942,4.5742-4.5722,4.8233-12.0625,4.8233-20.6269v-10.3926c0-12.6445,0-14.9726-.166-17.6348-.167-2.8261-.8321-4.1582-3.5772-4.7402-.665-.168-2.0791-.248-2.9941-.248-.9141,0-1.4121-.1641-1.4121-.7481,0-.582.581-.748,1.7451-.748,4.2422,0,9.4814.248,9.5644.248.9981,0,6.2373-.248,9.4815-.248,1.165,0,1.7461.166,1.7461.748,0,.584-.4991.7481-1.4971.7481-.9141,0-1.4141.08-2.4111.248-2.2461.416-2.9112,1.834-3.0772,4.7402-.167,2.6622-.167,4.9903-.167,17.6348v8.8945c0,9.2325-.915,19.0489-7.9004,25.0391-5.9052,5.0723-11.8935,5.9863-17.2998,5.9863-4.4082,0-12.3916-.248-18.4638-5.7363-4.2403-3.832-7.4004-9.9844-7.4004-22.041v-12.1426Z" fill="#fff"/><path d="M185.0615,452.7925c0-12.6445,0-14.9726-.1669-17.6348-.1661-2.8261-.8311-4.1582-3.5762-4.7402-.6651-.168-2.0781-.248-3.2432-.248-.914,0-1.414-.1641-1.414-.7481,0-.582.583-.748,1.83-.748,2.2461,0,4.6582.08,6.7373.08,2.1621.086,4.0743.168,5.2393.168,2.6611,0,19.2119,0,20.792-.082,1.5791-.166,2.9101-.334,3.5752-.502.416-.08.916-.334,1.331-.334.4161,0,.5.334.5.75,0,.5821-.417,1.584-.666,5.4102-.083.8301-.249,4.4863-.416,5.4902-.084.4121-.25.9082-.8311.9082-.583,0-.749-.414-.749-1.1621,0-.582-.083-1.9941-.5-2.9961-.581-1.4941-1.4131-2.4941-5.5713-2.9902-1.413-.168-10.1455-.334-11.8095-.334-.416,0-.583.2481-.583.8301v21.043c0,.582.083.914.583.914,1.8291,0,11.3935,0,13.3066-.166,1.9961-.166,3.2441-.4141,3.9922-1.248.582-.6621.915-1.0801,1.331-1.0801.3321,0,.5811.1699.5811.6621,0,.5019-.332,1.832-.6641,6.0742-.0849,1.6641-.333,4.9883-.333,5.5703,0,.666,0,1.584-.749,1.584-.582,0-.749-.334-.749-.75-.082-.834-.082-1.9121-.3311-2.9941-.417-1.666-1.581-2.9102-4.6572-3.2442-1.581-.166-9.8154-.248-11.8105-.248-.417,0-.5.3281-.5.8301v6.5722c0,2.8282-.0821,10.4805,0,12.8867.167,5.7442,1.498,6.9922,9.9804,6.9922,2.1631,0,5.6563,0,7.8174-.9941,2.1621-1.002,3.1621-2.75,3.7432-6.1602.166-.914.333-1.25.915-1.25.6651,0,.6651.668.6651,1.5,0,1.9121-.6651,7.5684-1.0811,9.2325-.582,2.1621-1.3311,2.1621-4.4902,2.1621-6.2393,0-10.8135-.1641-14.3887-.2481-3.5762-.1679-6.1543-.248-8.6494-.248-.9151,0-2.7451,0-4.7412.0801-1.9121,0-4.0743.1679-5.7393.1679-1.0801,0-1.6611-.248-1.6611-.8301,0-.416.331-.6699,1.3301-.6699,1.247,0,2.2451-.1679,2.9931-.332,1.6651-.3301,2.0801-2.1621,2.4121-4.5762.416-3.4961.416-10.0625.416-17.7129v-14.6367Z" fill="#fff"/><path d="M258.0039,490.5523c-1.331-.5821-1.581-.9981-1.581-2.8282,0-4.58.334-9.5664.416-10.8984.083-1.2441.333-2.1621.998-2.1621.7491,0,.833.75.833,1.4121,0,1.084.3321,2.8281.7481,4.2402,1.8291,6.1582,6.7363,8.4043,11.8926,8.4043,7.4843,0,11.1435-5.0703,11.1435-9.4804,0-4.0782-1.247-7.9043-8.1494-13.3067l-3.8262-2.9961c-9.1484-7.1543-12.3095-12.9726-12.3095-19.7129,0-9.1484,7.6513-15.7148,19.2138-15.7148,5.4043,0,8.8975.8281,11.0596,1.4121.749.166,1.165.4141,1.165.9961,0,1.082-.332,3.4961-.332,9.9824,0,1.8262-.251,2.4942-.916,2.4942-.582,0-.8311-.5-.8311-1.4981,0-.748-.416-3.3242-2.1621-5.4883-1.248-1.5781-3.6611-4.0742-9.0654-4.0742-6.1553,0-9.8975,3.5762-9.8975,8.5664,0,3.8262,1.9131,6.7344,8.8164,11.9785l2.3282,1.7442c10.0634,7.5683,13.6396,13.3066,13.6396,21.209,0,4.8222-1.8291,10.5644-7.8174,14.4707-4.1591,2.6621-8.8164,3.4101-13.2246,3.4101-4.8232,0-8.5654-.582-12.1416-2.1601Z" fill="#fff"/><path d="M310.9824,452.7925c0-12.6445,0-14.9726-.164-17.6348-.167-2.8261-.8321-4.1582-3.5772-4.7402-.665-.168-2.0791-.248-3.2422-.248-.913,0-1.415-.1641-1.415-.7481,0-.582.582-.748,1.8311-.748,4.4082,0,9.6474.248,11.9765.248,3.4082,0,8.2324-.248,12.0576-.248,10.3975,0,14.1397,3.4882,15.4688,4.7402,1.831,1.7441,4.1592,5.4902,4.1592,9.8965,0,11.8086-8.6485,20.1289-20.458,20.1289-.417,0-1.3311,0-1.7481-.0879-.415-.082-.999-.166-.999-.748,0-.6641.584-.9161,2.3301-.9161,4.6572,0,11.1425-5.2382,11.1425-13.7226,0-2.7422-.246-8.3106-4.9043-12.4707-2.9951-2.7481-6.4033-3.2422-8.3183-3.2422-1.2471,0-2.4942.0801-3.2432.3281-.415.166-.665.666-.665,1.584v33.2656c0,7.6504,0,14.2168.415,17.8008.25,2.3262.7481,4.1582,3.2432,4.4883,1.166.1641,2.9951.332,4.2422.332.916,0,1.331.2539,1.331.6699,0,.5821-.666.8301-1.582.8301-5.4863,0-10.7256-.248-12.8887-.248-1.9121,0-7.1513.248-10.4795.248-1.08,0-1.664-.248-1.664-.8301,0-.416.334-.6699,1.331-.6699,1.2471,0,2.2471-.1679,2.9951-.332,1.6622-.3301,2.0772-2.1621,2.4112-4.5762.414-3.4961.414-10.0625.414-17.7129v-14.6367Z" fill="#fff"/><path d="M365.4619,452.7925c0-12.6445,0-14.9726-.167-17.6348-.1621-2.8261-.83-4.1582-3.5712-4.7402-.669-.168-2.0811-.248-3.2442-.248-.916,0-1.418-.1641-1.418-.7481,0-.582.5831-.748,1.8321-.748,4.4072,0,9.6494.248,11.3945.248,2.8291,0,9.1475-.248,11.7236-.248,5.2412,0,10.8125.4941,15.3047,3.5781,2.3282,1.5781,5.6563,5.8164,5.6563,11.3906,0,6.1543-2.5801,11.8125-10.9785,18.6328,7.4023,9.3145,13.1396,16.711,18.0478,21.8731,4.6553,4.8242,8.0654,5.4062,9.3154,5.6543.9161.1679,1.6631.248,2.3262.248.668,0,.9971.2539.9971.6699,0,.6622-.5811.8301-1.5781.8301h-7.9034c-4.6552,0-6.7334-.416-8.8945-1.5801-3.5771-1.9121-6.7393-5.8222-11.3945-12.2304-3.3301-4.5723-7.1553-10.2285-8.2373-11.4746-.4151-.5-.9102-.586-1.4922-.586l-7.2403-.164c-.416,0-.663.164-.663.664v1.1641c0,7.7363,0,14.3027.415,17.7988.248,2.4141.748,4.2461,3.2422,4.5762,1.251.1641,3.0771.332,4.0791.332.6631,0,.9971.2539.9971.6699,0,.5821-.583.8301-1.6661.8301-4.8212,0-10.9785-.248-12.2236-.248-1.5781,0-6.8203.248-10.1484.248-1.0791,0-1.6592-.248-1.6592-.8301,0-.416.3271-.6699,1.3291-.6699,1.2451,0,2.2471-.1679,2.9902-.332,1.6651-.3301,2.0791-2.1621,2.4141-4.5762.415-3.4961.415-10.0625.415-17.7129v-14.6367ZM375.2774,459.3589c0,.916.167,1.25.748,1.4981,1.7471.58,4.2412.83,6.3193.83,3.3301,0,4.4082-.33,5.9053-1.4121,2.4951-1.832,4.9072-5.6562,4.9072-12.4765,0-11.8106-7.8164-15.2188-12.7246-15.2188-2.0791,0-3.5771.084-4.4072.332-.581.168-.748.502-.748,1.1641v25.2832Z" fill="#fff"/><path d="M424.2696,452.7925c0-12.6445,0-14.9726-.167-17.6348-.1661-2.8261-.835-4.1582-3.5762-4.7402-.669-.168-2.0801-.248-3.2442-.248-.916,0-1.416-.1641-1.416-.7481,0-.582.5821-.748,1.8311-.748,4.4072,0,9.6494.248,12.1435.248,1.9932,0,7.2354-.248,10.2305-.248,1.2441,0,1.8262.166,1.8262.748,0,.584-.4961.7481-1.3311.7481-.915,0-1.4121.08-2.4082.248-2.2461.416-2.914,1.834-3.081,4.7402-.1621,2.6622-.1621,4.9903-.1621,17.6348v11.6406c0,12.0567,2.4082,17.1328,6.4863,20.461,3.7392,3.0781,7.5654,3.4121,10.3926,3.4121,3.6631,0,8.1513-1.1621,11.4804-4.4942,4.5743-4.5722,4.8223-12.0625,4.8223-20.6269v-10.3926c0-12.6445,0-14.9726-.168-17.6348-.166-2.8261-.8291-4.1582-3.5761-4.7402-.6622-.168-2.0801-.248-2.9903-.248-.916,0-1.417-.1641-1.417-.7481,0-.582.5821-.748,1.7451-.748,4.2452,0,9.4825.248,9.5684.248.9961,0,6.2334-.248,9.4805-.248,1.165,0,1.747.166,1.747.748,0,.584-.5019.7481-1.498.7481-.916,0-1.417.08-2.4141.248-2.2461.416-2.9091,1.834-3.0752,4.7402-.1669,2.6622-.1669,4.9903-.1669,17.6348v8.8945c0,9.2325-.9161,19.0489-7.8985,25.0391-5.9043,5.0723-11.8945,5.9863-17.2988,5.9863-4.4121,0-12.3955-.248-18.4678-5.7363-4.2402-3.832-7.3974-9.9844-7.3974-22.041v-12.1426Z" fill="#fff"/><path d="M499.9619,483.6499c-8.1513-7.1601-10.3164-16.4746-10.3164-24.5371,0-5.6582,1.75-15.4707,9.7354-22.789,5.9853-5.4903,13.8877-8.8145,26.2793-8.8145,5.1562,0,8.2314.3301,12.0566.8281,3.1621.416,5.8242,1.166,8.3184,1.4141.916.0859,1.25.498,1.25,1,0,.6641-.253,1.6601-.4209,4.5742-.166,2.7422-.0811,7.3164-.2471,8.9805-.081,1.25-.248,1.914-.9971,1.914-.6679,0-.8339-.664-.8339-1.832-.0821-2.5762-1.1651-5.4844-3.2442-7.6504-2.7422-2.9082-9.2285-5.1562-16.8789-5.1562-7.2402,0-11.9766,1.832-15.6396,5.1562-6.0704,5.5762-7.6495,13.4727-7.6495,21.543,0,19.793,15.0518,29.6094,26.1993,29.6094,7.4013,0,11.8896-.834,15.2177-4.6602,1.4131-1.584,2.4942-3.9902,2.8291-5.4902.2481-1.3301.4151-1.6641,1.0782-1.6641.5869,0,.748.582.748,1.252,0,.9941-.9961,8.2363-1.8262,11.0586-.415,1.416-.749,1.832-2.166,2.414-3.3232,1.3301-9.6426,1.9121-14.9648,1.9121-11.3955,0-20.9639-2.4941-28.5274-9.0625Z" fill="#fff"/><path d="M565.252,452.7925c0-12.6445,0-14.9726-.167-17.6348-.168-2.8261-.8311-4.1582-3.5781-4.7402-.6631-.168-2.0791-.248-3.2432-.248-.915,0-1.4111-.1641-1.4111-.7481,0-.582.581-.748,1.8261-.748,2.2471,0,4.6602.08,6.7403.08,2.1611.086,4.0732.168,5.2363.168,2.6621,0,19.2168,0,20.7949-.082,1.5791-.166,2.9102-.334,3.5772-.502.415-.08.9101-.334,1.331-.334.4141,0,.4961.334.4961.75,0,.5821-.415,1.584-.6631,5.4102-.0869.8301-.2539,4.4863-.415,5.4902-.086.4121-.2529.9082-.835.9082-.581,0-.749-.414-.749-1.1621,0-.582-.0801-1.9941-.4951-2.9961-.582-1.4941-1.417-2.4941-5.5752-2.9902-1.4121-.168-10.1455-.334-11.8106-.334-.414,0-.582.2481-.582.8301v21.043c0,.582.0869.914.582.914,1.8321,0,11.3946,0,13.3077-.166,1.999-.166,3.2431-.4141,3.9912-1.248.582-.6621.916-1.0801,1.331-1.0801.335,0,.5821.1699.5821.6621,0,.5019-.3291,1.832-.6631,6.0742-.086,1.6641-.334,4.9883-.334,5.5703,0,.666,0,1.584-.7481,1.584-.582,0-.749-.334-.749-.75-.082-.834-.082-1.9121-.3349-2.9941-.4141-1.666-1.5782-2.9102-4.6553-3.2442-1.5781-.166-9.8135-.248-11.8076-.248-.4151,0-.502.3281-.502.8301v6.5722c0,2.8282-.0801,10.4805,0,12.8867.168,5.7442,1.4981,6.9922,9.9834,6.9922,2.1602,0,5.6524,0,7.8164-.9941,2.1611-1.002,3.1572-2.75,3.7403-6.1602.166-.914.333-1.25.915-1.25.668,0,.668.668.668,1.5,0,1.9121-.668,7.5684-1.0821,9.2325-.582,2.1621-1.331,2.1621-4.4941,2.1621-6.2334,0-10.8057-.1641-14.3848-.2481-3.5762-.1679-6.1572-.248-8.6513-.248-.9161,0-2.7422,0-4.7413.0801-1.9121,0-4.0722.1679-5.7373.1679-1.083,0-1.665-.248-1.665-.8301,0-.416.335-.6699,1.3311-.6699,1.25,0,2.246-.1679,2.9951-.332,1.665-.3301,2.08-2.1621,2.414-4.5762.4151-3.4961.4151-10.0625.4151-17.7129v-14.6367Z" fill="#fff"/><path d="M299.4258,285.6656c0,1.4335,1.1592,2.5918,2.5908,2.5918,1.4297,0,2.5918-1.1583,2.5918-2.5918v-10.4673c0-1.4317-1.1621-2.5899-2.5918-2.5899-1.4316,0-2.5908,1.1582-2.5908,2.5899v10.4673Z" fill="#fff"/><path d="M302.0166,246.1612c1.4297,0,2.5918-1.1582,2.5918-2.5909v-10.4677c0-1.4327-1.1621-2.5909-2.5918-2.5909-1.4316,0-2.5908,1.1582-2.5908,2.5909v10.4677c0,1.4327,1.1592,2.5909,2.5908,2.5909ZM303.668,246.5811c-.0166-.0098-.0313-.0196-.0449-.0303-.0088-.0752-.0157-.1465-.0254-.2168.0224.0801.0478.166.0703.2471Z" fill="#fff"/><path d="M447.3682,310.0601l.0537-221.8609L303.7207,0l-147.1103,88.9131v221.147h131.6162v27.082h-131.5586v6.3711h138.8652v-124.0669h17.5547c-2.6894.9873-4.4551,2.5762-4.4463,5.0293v119.0376h138.6699v-6.3711l-131.4736.0078v-27.0898h131.5303ZM288.2266,302.4488h-124.0098V93.1475L303.6817,9.0977l136.08,83.5185v209.8326h-123.9238v-29.5748c.4531-.833.9082-1.664,1.3594-2.497,1.9414,3.4404,4.0166,6.8554,6.2178,10.2358.791-2.5249.5253-5.1304.2519-7.6958,1.7774,4.1436,4.8379,8.0708,8.9541,11.4946-.1699-2.6464.042-5.3066.6387-7.9331,1.9639,1.4317,1.8535,3.5816,3.3789,5.2164,2.2383,2.3984,7.3965,3.1074,10.0976,5.3125-1.6298-2.4688-3.2548-4.9375-4.8876-7.4122,1.3085.8301,2.6162,1.6602,3.9199,2.4844,2.2617,1.4258,4.5547,2.8731,7.3174,3.9004,2.7568,1.0215,6.0869,1.5996,9.2031,1.1387-3.3037-1.2696-5.4942-3.3985-7.5694-5.459,3.0206,2.2773,7.7325,3.6269,12.4463,3.5605,4.8672-.0644,9.4825-1.5273,14.2901-1.8105-5.3994,0-10.7979-1.2031-14.9512-3.3789,10.4727.7988,21.416-1.2539,29.4668-5.5308-8.0205.3399-16.2578.4561-23.8867-1.1328-1.8428-.3789-3.6279-.8603-5.4043-1.3457.0205,0,.04.0049.0605.0108-1.209-1.8331-2.7871-4.044-3.9961-5.875,4.8311,1.8261,11.1006,2.0693,16.251.6171-2.4834-.2431-4.6953-1.3808-5.5605-2.8642,7.3818.2988,14.9004-1.0567,20.9209-3.7598-6.2676.8106-12.5108-1.0215-18.5928-2.2705-3.8203-.7842-7.7373-1.3457-11.6074-2.0234-4.4326-.7803-8.7881-1.7158-13.0596-2.8037-1.4873-1.3311-2.7363-2.7627-3.7041-4.2705,5.9307,5.0849,17.3857,7.3115,26.8564,5.2167-6.9404-1.205-13.5595-3.1474-19.4628-5.7324,8.7734,1.2237,18.5322,1.8926,26.2392-1.0068-4.7871-.6123-9.5381-1.3408-14.2392-2.1709-1.1221-.5566-2.25-1.1182-3.3741-1.6699,8.3994,2.125,19.0655-.3389,23.2696-5.378-4.1944.4454-8.4502.667-12.7051.667,7.7773-1.3154,14.8867-4.1484,20.1015-8.0039-7.7812,1.7354-16.1552,2.4092-24.3759,1.9688-9.2442-.4961-18.0938-2.3692-26.7373-4.5537,1.3769.04,2.7685.0302,4.1445.0146-2.1563-1.1484-4.0205-2.5137-5.4951-4.0273,6.5537,1.8974,14.6543,1.498,20.6553-1.0215-3.4454-.0459-6.8672-.6279-9.877-1.6758,6.2031-.6113,12.1279-2.291,16.9443-4.8213-9.041.2881-18.2597.2031-26.9238-1.4472-1.2109-.2276-2.3994-.4913-3.582-.7686-.916-1.7051-1.5303-3.4766-1.8233-5.2676,3.2295,3.4102,10.1123,4.5332,16.2959,5.3526-1.9541-1.5577-3.9111-3.1211-5.8691-4.6797,6.2236,3.7187,15.4512,5.3427,23.8457,4.1992-3.5977-.5606-6.9619-1.7051-9.6836-3.2832,8.2461.6426,16.7871-.3281,24.1533-2.7324-6.2129.1464-12.456-.1104-18.5888-.7637-3.2071-.3389-6.3946-.7891-9.4415-1.5078-3.2373-.7588-6.2783-1.8115-9.3349-2.8389-.6924-1.6084-1.3819-3.2129-2.0742-4.8213,2.6318,3.668,8.749,6.2481,15.1484,6.3848-1.3301-1.7197-2.792-3.4102-4.3662-5.0488,5.6318,2.666,13.4443,2.1904,20.4307,1.5879-3.6934-1.1631-7.2188-2.5401-10.5245-4.0977,7.3623.5264,14.9825-.5117,21.337-2.9043-4.4825-.6182-8.9297-1.3408-13.3272-2.166-4.7666-.9004-9.4766-1.917-14.1807-2.9395-5.4502-1.1836-10.9209-2.373-16.1171-3.9365-.5821-.7988-.9356-1.6338-.8252-2.5146,2.6679,3.1875,9.0078,4.9589,14.5634,4.0732-2.8291-1.0527-5.1757-2.6113-6.7148-4.4365,2.206.8955,4.4385,1.791,6.9121,2.3476,2.4688.5508,5.2422.7334,7.71.166-2.751-.8046-5.292-1.8916-7.4922-3.2031,2.9043.3496,5.8379.6992,8.789.6074,2.9532-.0859,5.9698-.6533,8.1241-1.9218-13.2295-1.6094-26.0411-4.5342-37.8262-8.6377-1.1416-.3994-2.2715-.8096-3.3945-1.2237-.5772-1.2753-1.1534-2.5507-1.7315-3.8261,2.8242,2.7422,7.7236,4.6054,12.9082,4.9082-1.4805-1.2901-2.958-2.5801-4.4375-3.8701,2.3477.7636,4.3272,1.9072,6.5635,2.7929,2.2363.8799,4.9434,1.5176,7.5029,1.1026-2.5449-1.295-4.7656-2.8379-6.5469-4.5586,2.0538.3388,4.1397.6631,6.2637.6679,2.125,0,4.3164-.3486,5.9248-1.2236-9.1015-1.3418-16.501-5.3281-24.4189-8.4453-.3438-.1367-.6992-.2627-1.041-.3945.2431-1.1182.4902-2.2364.7343-3.3555.4356,1.4219,1.1368,2.834,2.4571,4.0127,1.3203,1.1846,3.3447,2.1152,5.6259,2.2822-.6679-1.3808-1.3251-2.8945-.4521-4.2295,1.5576,2.5645,5.9639,4.3213,10.3203,4.1231-1.458-.8448-2.7324-1.8057-3.8008-2.8535,1.8233.6171,3.668,1.2441,5.6924,1.5175,2.0235.2735,4.2764.1524,5.9356-.622-2.6006-.7784-5.2061-1.5635-7.8077-2.3418,5.712.2881,12.0723.3125,16.3985-2.0498-2.3828-.9151-5.2871-1.0528-8.0039-1.4571-4.6856-.6982-8.876-2.2109-13.0899-3.709,1.6338.4405,3.3448.7696,5.1006.9717-1.6387-1.4277-3.0713-2.9502-4.2754-4.539,1.6143.9472,3.2588,1.913,5.2461,2.5195,1.9893.6025,4.4131.7998,6.3906.1826-2.0634-.8594-3.8544-1.9932-5.2119-3.3037,2.4854.4297,5.0049.8398,7.5801.8545,2.5703.0156,5.2363-.4092,7.1797-1.4717-2.6563-.3291-5.2715-.79-7.8076-1.3818,5.749-.0703,11.9209-.2979,16.4443-2.5244.1319-.0655.2627-.1368.3281-.2334.253-.3887-.7119-.6065-1.3808-.5967-8.9053.1826-17.7637-.7178-26.5576-1.6133-3.0811-.3145-6.167-.6328-9.1895-1.1133-6.9668-1.1181-13.4932-3.1015-19.9629-5.0752-1.7021-.5205-3.4082-1.042-5.0459-1.6445-.1953-1.0576-.3935-2.1143-.5879-3.1719,1.1895,1.1738,2.3985,2.3672,3.9844,3.3447,1.5889.9756,3.6123,1.7354,5.8262,1.8614-1.5069-.8145-2.3272-2.1045-2.1406-3.3496,1.8144,1.0527,3.6943,2.1357,6.0136,2.6718,2.4815.5713,5.2119.4707,7.8477.3594-1.9912-1.1748-3.9815-2.3428-5.9707-3.5117,3.3271,1.2656,7.458,1.6748,11.2451,1.1133-2.2471-.542-4.2354-1.4922-5.6621-2.7119,1.9033.5009,3.8555.9814,5.916,1.083,2.0547.0957,4.2549-.2334,5.6982-1.1592-2.7529-.6729-5.5-1.3408-8.2539-2.0137,4.6768-.1719,8.9219-1.7051,12.8575-3.2988-13.4883,1.6348-27.4952,1.5537-40.9366-.2324-2.997-.4004-5.997-.8907-8.7246-1.7666-1.3564-.4346-2.6181-.961-3.831-1.5323.6308-.9414,1.2607-1.8828,1.8886-2.8232.0108,1.2344.1914,2.4639.5411,3.6777,1.0293-.8496,1.8164-1.8164,2.3037-2.8388.0742,1.1484.2158,2.2929.4248,3.4365,1.4883-1.2246,2.7754-2.5459,3.8437-3.9365.3262,1.2851.6514,2.5693.9756,3.8554,1.501-.8203,2.625-1.9131,3.2051-3.1064,1.4707,1.5527,1.2627,3.668,3.2666,4.9678.8935-1.25,1.7695-2.5049,2.6182-3.7696,1.0048,1.8321,2.3398,3.8858,5.2402,4.544-.2363-1.3057-.2051-2.626.0937-3.9317.7452,1.3057,3.1641,1.8418,5.2862,2.2168,1.2793.2217,2.5586.4444,3.8359.6729-1.1465-.9619-2.1426-1.9942-2.96-3.0762.6045.6065,1.8291.8145,2.9375.9717,3.1973.46,6.5157.9199,9.7315.5107-2.127-.5615-4.1035-1.3515-5.8184-2.3222,1.9961.1963,4.0069.3935,6.0196.3388,2.0195-.0605,4.0683-.3945,5.6718-1.164-2.6162-.374-5.206-.8145-7.7597-1.3203,3.6103-.0059,7.1875-1.0928,9.4297-2.8741-4.7256.8702-9.7539.7588-14.6739.6123-6.4453-.1972-12.8877-.4404-19.3232-.7334-3.0205-.1367-6.0586-.289-9.001-.7343-3.3594-.5108-6.5615-1.4063-9.4121-2.6358.2168-.2685.416-.5468.5918-.8252.374-.5966.6689-1.2138.8584-1.8457.6768,1.002,1.1797,2.0489,1.4932,3.1162,1.0517-1.1582,1.8437-2.413,2.3398-3.7187.7295,1.2041,1.4522,2.4033,2.1758,3.6074,1.457-.9717,1.498-2.459,1.4463-3.79,1.6777,1.1084,3.0605,2.3935,4.0683,3.79.7647-1.0117,1.21-2.1152,1.3008-3.2285,1.7842,1.1738,3.4854,2.3936,5.1006,3.6533.541-1.1738.794-2.4033.7383-3.6279,1.4375,1.1484,2.7119,2.3789,3.8203,3.6631.6758-1.5176.7578-3.1367.2344-4.6748,1.5517,1.4472,3.5781,2.6963,5.915,3.6435.2276-1.3115-.2139-2.6572-1.25-3.8056,2.6973.9765,3.7217,3.3496,6.6465,4.0175.2676-1.538-.4248-3.1367-1.9023-4.3711,3.5742.9004,7.1035,1.8721,10.5849,2.9141-1.2324-1.7002-3.5351-3.0859-6.2939-3.7803,4.7607.2637,9.8164.502,14.0761-.8593-11.8711-2.9649-25.0263-2.96-37.8017-2.753-1.8418.0254-3.6904.0616-5.5352.0967-2.0185.0352-4.0371.0713-6.0566.1055-.9336.0205-2.0381-.0098-2.9639.2031-.0068-.5869-.0068-1.1787-.0146-1.7656.206-.3496.4121-.6934.6172-1.0381.8759.7744,1.5849,1.625,2.1054,2.5205.8028-1.0322,1.3389-2.1514,1.5782-3.2891.4033,1.0371,1.2441,2.0088,2.4121,2.7881,1.1113-.6074,1.6796-1.5742,1.4619-2.4892.9258.8808,1.8467,1.7646,2.7705,2.6464,1.1709-1.0322,1.6719-2.3584,1.3681-3.6084,1.6094,1.0977,3.8516,1.8223,6.209,2.0088-.2207-.8808-.4384-1.7607-.6582-2.6357,1.6446,1.0215,4.2754,1.3603,6.4317.8291-.9805-.4951-1.7735-1.1328-2.2979-1.8467,5.0547,1.0674,10.9082.5108,15.2403-1.4414-2.125.2022-4.378-.1719-6.0538-1.0166,3.9288-.415,7.7276-1.2959,11.1407-2.5859.3506-.1309.7216-.4453.3867-.5918-2.3428.1211-4.6944-.0655-7.0274-.253,2.7725-.7793,5.5401-1.5634,8.3135-2.3476-.5117-.167-1.0635-.2832-1.6357-.3399-1.3399-.1259-2.7061.0713-4.0147.3096-6.2656,1.1328-12.1093,3.0352-18.3008,4.3203-6.1904,1.2852-13.0654,1.918-19.1621.4658.1534.1622.3057.3184.4571.4805l.6025.0713c-.1055,0-.207-.0059-.3125-.0059-.4912,0-1.0107.0303-1.4053.2081-.1338.0654-.2402.1416-.334.2265-.0341-1.8711-.0566-3.748-.0966-5.625.2539.8291.6474,1.6387,1.2617,2.3877.5703-.6777.8642-1.4463.8428-2.2158.7754.9258,1.4853,1.8672,2.1289,2.8281,1.0283-1.0722,1.3027-2.418.7314-3.6133.9815,1.3057,2.959,2.2979,5.2022,2.6162-.5889-.8847-1.1075-1.791-1.5547-2.7119,2.4336.9014,5.4013,1.2198,8.1758.875-.96-.6318-1.917-1.2636-2.8731-1.8916,3.0254.6426,6.3682.6826,9.4365.1211-1.5664-.6318-3.29-1.1181-5.0908-1.4209,3.2539.3584,6.7451-.2431,9.2442-1.6045-1.8399-.0302-3.6788-.0605-5.5176-.0966,2.6689-.7383,5.0976-1.8262,7.0742-3.1817-3.5537.0498-7.0947.3281-10.5557.835-2.4248.3535-4.8086.8144-7.2119,1.209-2.1406.3593-4.3027.6728-6.5058.8144-1.3379.086-3.7598-.2226-4.7774.4854-.0459.0302-.084.0664-.124.1015-.0547-2.2363-.1045-4.4775-.1709-6.7197.4697.5674,1.1191,1.0781,1.9033,1.4785.1924.1006,2.499.9258,2.5205.8291.1729-.7685.0498-1.5586-.3603-2.292,1.9843.3897,4.1142.4756,6.1631.2481-.8604-.5459-1.7764-1.0528-2.7403-1.5235,3.3028.4864,6.9307.0254,9.6729-1.2285-2.1895-.375-4.4405-.582-6.7051-.6279,3.4385-.6328,7.1367-1.4522,9.0215-3.3643-1.2041.0606-2.4102.1211-3.6123.1817,3.2373-1.3555,6.4463-3.1016,7.331-5.4795-1.7617.2676-3.2734.956-4.7597,1.6094-2.4356,1.0664-4.9424,2.0693-7.5157,2.9941-2.2558.8154-4.5634,1.5693-6.9111,2.2725-1.334.3994-3.1103.7695-4.1162,1.5185-.0352-1.1338-.0752-2.2676-.1123-3.4004.2588.3233.5508.6426.8867.9414.8174-.6484,1.2227-1.4931,1.1094-2.3183.7519.7031,1.6103,1.3623,2.5576,1.9629.1094-.8799-.0205-1.7705-.3848-2.6202,1.5655.42,3.292.6016,4.9893.5313-.5313-.5117-1.1416-.9863-1.8223-1.4219,2.9756.0508,5.961-.5264,8.378-1.6142-1.2032-.253-2.4688-.3897-3.7334-.4043,2.8584-1.1387,5.1513-2.834,6.4804-4.792-4.0156,2.2968-9.0429,3.7695-14.1513,4.9287-1.4366.3232-2.9414.6221-4.4512.6474-.0303-.8447-.0625-1.6904-.0957-2.5351.0576.04.1035.0918.165.1269.9756.587,2.5694.3741,3.8545.6377-.1846-.4453-.5058-.8613-.9443-1.2246,2.1963.3184,4.6015.0196,6.4414-.8047-1.2705.0049-2.5401-.0605-3.7901-.1972,3.1221-.127,6.1163-1.1739,7.9434-2.7676-1.4922.2627-2.9834.5264-4.4746.7891,3.3232-1.1182,6.0127-2.9649,7.4902-5.1465-3.3603,1.8427-7.0683,3.4306-11.0185,4.7265-1.6621.5459-3.7744.8809-5.3125,1.5284-.1739.0703-.3155.1621-.4424.2578-.0459-1.1797-.0977-2.3575-.1475-3.542.2881.4902.7041,1.164.6094,1.2754.4746-.5664.707-1.2198.6729-1.8575.4531.5879.8056,1.2051,1.0527,1.837.4902-.6934.6943-1.4727.585-2.2315.7646.5215,1.5791,1.0068,2.4414,1.457.0839-.7236-.1729-1.4619-.7325-2.0947,1.3155.668,3.1045.9512,4.7637.7588-.8711-.3437-1.6338-.7939-2.2314-1.3252,2.0888.5361,4.6523.2529,6.3183-.7031-.8896-.2276-1.876-.2988-2.8232-.207,1.6445-.6934,2.7666-1.8624,2.9687-3.0977-3.3633,1.3818-7.0556,2.4238-10.9199,3.1074-1.0322.1865-2.2178.3086-2.7969.8858-.0634-1.417-.124-2.834-.1904-4.2559.6016.5518,1.2441,1.0781,1.9395,1.5791.6123-.5215.7744-1.2402.4179-1.8467.8252.4346,1.7158.8145,2.6621,1.1436.1739.0605.3955.1162.5616.0498.2226-.0957.1191-.3184-.0118-.4649-.3203-.375-.6416-.749-.9599-1.1181,1.6211.5508,3.6582.5967,5.333.1162-.7442-.3496-1.5635-.6377-2.4277-.8555,1.6562.2988,3.5468.0156,4.8007-.7226-.7236-.2129-1.5429-.2989-2.3369-.2491,1.4014-.6621,2.3389-1.6943,2.5322-2.7871-3.9638,1.0616-7.9296,2.125-11.8955,3.1866.0655-.1915.1319-.379.1983-.5704.0937-.2744.0625-.6679-.377-.6992-.1845-.7832.4082-1.624,1.461-2.0586.2636.1465.5244.293.7832.4395-.1143-.6426-.2266-1.2793-.3428-1.917-.0801-.4609-.2461-.9971-.9063-1.1992.379-.4649.7608-.9258,1.1426-1.3916-.6982,0-1.2519-.4053-1.4199-.8301-.166-.4248-.0479-.8701.0107-1.3047.1055-.7549.0323-1.5137-.2119-2.252-.1611.7334-.3222,1.4668-.4853,2.2061-.9541-.1562-1.7237-.6934-1.8672-1.3105.0088.7138.0185,1.4218.0244,2.1298.0039.2637-.0566.5928-.4463.6885-.2695.0654-.5859-.0107-.8584.0508-.5166.1162-.4609.5967-.1767.8906.289.293.7207.5772.6572.9199-.0664.3604-.6797.6836-.4512,1.0127.0947.1368.3154.2178.4951.3184,1.1075.5869.9717,1.7109,1.4707,2.5508-.0273.9609-.0576,2.0234-.0869,3.1777h-.0469c.004.126.0254.2529.0342.3789-.0605,2.2061-.1318,4.7354-.209,7.5137-.0927-.1221-.2011-.2275-.3398-.334-1.0732-.7842-3.2168-1.1035-4.6279-1.5889-1.8682-.6425-3.6465-1.3867-5.3067-2.2265-.916-.46-1.7978-.9512-2.6377-1.4668-.3232-.1983-2.4941-1.3711-2.3935-1.624-.7598,1.8759.1113,3.9863,2.2334,5.3935-1.2227.1211-2.5293-.1621-3.376-.7334,1.2168,1.6944,4.3848,2.7363,7.2959,2.4082-1.1523.501-2.3789.9404-3.6563,1.2998,1.6875.4707,3.6016.6123,5.4161.3946-.9004.7441-1.8799,1.4531-2.9307,2.1152,1.8115.0557,3.6484-.2383,5.1934-.835-.6123.916-1.4717,1.7608-2.5323,2.4942,1.8623-.0655,3.6846-.5157,5.1133-1.2696.0615.8047-.0869,1.6192-.4394,2.3877.5644-.5918,2.1836-.5918,2.7461,0,.0234-.0302.0419-.0605.0654-.0908-.0371,1.3408-.0733,2.7168-.1143,4.1231-1.041-.5762-2.3056-1.0567-3.2617-1.543-3.9434-2.0186-6.9775-4.6397-9.9648-7.2197.0429.7382-.7412,1.4013-.92,2.1406-.2754,1.1172.8604,2.1592,1.9385,3.0654-1.539-.2676-3.2246-.6074-4.0605-1.4619.6797,1.9883,3.2265,3.6836,6.3525,4.2148-2.0635.5059-4.4658.4805-6.4482-.1416,2.122,1.2901,4.9804,2.0997,7.9267,2.2364-1.0683.8603-2.4463,1.5674-4.001,2.0586,2.0079.3496,4.1797.3193,6.1563-.0957-.6221.8193-1.458,1.5839-2.4609,2.2412,1.8994.0859,3.8388-.2481,5.4013-.9258-.3105.9111-.8691,1.791-1.6426,2.5908,1.6583.2881,3.5313,0,4.8057-.7236-.0517,1.8369-.1035,3.708-.1572,5.6064-1.6338-.831-4.1113-1.3662-5.6006-1.9228-1.6729-.6328-3.3154-1.3057-4.7725-2.1153-3.6211-2.0234-5.9004-4.8066-8.0957-7.5185-2.4541,2.084-2.6259,5.125-.4121,7.3115-1.9189-.2734-3.6543-1.0273-4.7353-2.0596.4511.794-.1367,1.6797.0781,2.5088.2266.876,1.334,1.5742,2.6016,1.9639,1.2656.3848,2.6914.5107,4.0879.6269-1.42.7491-3.0166,1.3663-4.7217,1.8223.9609-.2236,2.0195-.0107,3.0351.0606,1.501.1113,3.0537-.1065,4.3379-.6075-.9336,1.1133-2.2021,2.1153-3.7217,2.9395,2.2452-.3691,4.4151-.9199,6.4356-1.6387-.4053.7129-.8106,1.4268-1.2149,2.1397-6.4209-.2627-12.875-.1114-19.1972.6172-.8926.1015-1.794.2177-2.5957.4814,2.2695,1.0615,5.2236,1.5273,8.0195,1.2598-1.6025.708-3.2051,1.4111-4.8066,2.1191,2.2832.2432,4.7099-.1162,6.582-.9707-.7227,1.1426-1.9551,2.1553-3.5186,2.8936,2.0411-.1465,4.0254-.5967,5.7354-1.3155-.166.7998-.6397,1.5684-1.375,2.2266,2.2891-.1826,4.418-1.0381,5.6367-2.2715-.29.8848-.7988,1.7295-1.5049,2.5088,1.9082-.4092,3.6397-1.1426,4.9698-2.0986-.3907,1.1074-1.292,2.1396-2.5577,2.9492-1.4961-.2227-2.9902-.4404-4.4882-.6631-2.0342-.3037-4.0821-.6123-6.0069-1.1279-3.0322-.8194-5.7011-2.1602-7.6396-3.8409.3652,1.336.7334,2.6827,1.498,3.9424.7608,1.2647,1.9502,2.4629,3.6836,3.2627-.4951-.622-.7744-1.3154-.8183-2.0136,1.7197,1.1835,2.6904,2.7929,2.6601,4.3964.7656-.5966,1.3369-1.2841,1.6738-2.0185.3496.9512.4131,1.9433.1817,2.9101.8301-.7793,1.6172-1.5742,2.3672-2.3789.6181.9209.5732,2.0186-.1221,2.9248,1.6143-.5722,3.0469-1.3408,4.1982-2.2519-.3046,1.1797-1.2421,2.2871-2.6142,3.1064-8.5059-.7236-16.7529-2.499-25.1153-3.7988.5303,1.3203,2.3497,2.4023,4.4805,2.6611-1.5068.1162-3.0137.2325-4.5205.3487,1.5127,1.2597,3.9512,2.0644,6.4619,2.1308-1.7021.3535-3.4101.708-5.1123,1.0616,2.4951,1.124,5.7705,1.539,8.7647,1.1083-.8291.6631-1.9209,1.1993-3.1543,1.5381,1.7529.8702,4.1738,1.1895,6.332.8252-1.585,1.0879-3.9463,1.71-6.29,1.6592,1.2177.7334,2.9795,1.042,4.6709,1.0068,1.6875-.0351,3.3242-.3896,4.8623-.83-.8174.5771-1.8008,1.0634-2.8848,1.4277,3.1484.8291,6.6777-.2432,9.6494-1.2959-.7265,1.3613-2.1191,2.5801-3.9433,3.4512,2.3369.2373,4.8408-.3037,6.4423-1.3965-.8349.8447-1.623,1.7148-2.3593,2.6055,3.3603-.42,6.3955-1.7813,8.124-3.6387-.0039,1.2754-.709,2.5459-1.9688,3.542,2.9385-.3281,5.6875-1.2901,7.6729-2.6865-.2451.997-.9942,1.9482-2.1084,2.6767.4629-.3037,2.624-.4101,3.3379-.5615,1.1806-.2627,2.3262-.5869,3.4219-.9619.3818-.1309.7558-.2676,1.1279-.4151-1.6035,1.7715-3.4717,3.4405-5.5606,5.0098-4.0879.3389-8.1689.708-12.2705.9717-7.7871.4961-15.7588.5918-23.3388-.6279-2.25-.3643-4.5274-.8448-6.837-.6983,1.1485,2.2979,4.6368,4.0479,8.4493,4.25-.6426.5108-1.5303.9004-2.5205,1.1035,1.622.835,3.7675,1.2598,5.8613,1.1641-1.3018.9814-2.9141,1.7959-4.7168,2.3877,2.8896.4609,5.9863.3994,8.8232-.1817-.4951.9053-1.4257,1.7149-2.6367,2.2969,2.9404.4043,6.1641-.0918,8.4776-1.3056-.2481.7744-.8624,1.498-1.7471,2.0546,2.6894.2823,5.5498-.1318,7.7666-1.1289-.2305,1.1377-1.2403,2.2012-2.7266,2.8741,3.0811-.4307,5.9336-1.4825,8.0244-2.9649.0157.0459.0254.0908.0381.1416-.5644.4404-1.1474.8701-1.748,1.2949.5771-.0654,1.1474-.1621,1.7051-.2783-.1397.3897-.4151.7539-.8106,1.0684,2.4023-.3545,4.5029-1.417,5.5957-2.8086.044-.0205.0869-.0459.1299-.0664-.0117.8203-.3897,1.6396-1.0928,2.333,1.8281-.5361,3.459-1.3252,4.7774-2.2813-.0264.1924-.0508.3838-.0821.5762.8789-.7139,1.6631-1.4668,2.3623-2.251.1436.753-.1054,1.543-.7168,2.2061,1.2979-.5576,2.4873-1.21,3.5518-1.9336-.0273.4463-.0596.8916-.0947,1.331-.6358.2071-1.2549.4454-1.8565.6778-13.289,5.1963-25.8701,11.3135-40.4941,14.8203-1.5635.374-3.1592.7178-4.8125.8799-3.0811.2988-6.2197-.0557-9.2861-.4092,2.1054,2.7168,7.2363,4.3603,11.9746,3.8398-1.7588.9463-3.628,1.8057-5.5879,2.5752,1.9931-.3994,4.1299-.3896,6.1924-.6074,2.0625-.2168,4.2138-.7441,5.3154-1.8613-.4258,1.0566-1.332,2.0381-2.583,2.7978,3.0869-.4902,5.9746-1.4629,8.3437-2.8037-.0664,1.3408-.6816,2.6719-1.7734,3.8203,3.4912-1.2441,7.206-2.6455,8.8057-4.958-.0713,1.0616-.6045,2.1143-1.5235,3.0098,3.8233-1.1836,6.917-3.2686,8.5303-5.7471.3974,1.4824-.0811,3.0508-1.3213,4.336,3.3018-1.0879,5.5977-3.2989,5.8525-5.6368.3438,1.2901.6866,2.5811,1.0293,3.876-1.1259.5264-2.249,1.0528-3.3652,1.5889-2.5293,1.2041-5.0566,2.418-7.6152,3.5976-8.7041,4.0166-18.3106,7.8272-29.0811,8.3174,2.9981,1.877,7.626,2.667,11.7256,1.9942-1.877,1.3652-4.0264,2.5849-6.3799,3.622,4.9678.1875,10.0254-1.2295,13.1123-3.6787-.7363,1.8721-1.9756,3.6739-3.6513,5.293,5.497-.6484,10.3085-3.2275,12.1992-6.5371-.5264,1.6699-1.8262,3.2383-3.6944,4.4678,4.1827-.7588,7.6553-2.9092,8.9268-5.5254-.1299,1.7812-.9102,3.542-2.249,5.1103-1.0713.375-2.5313.8604-3.0928.7588,3.2539.5869,6.7891.5518,10.0117-.1064-1.418,1.9131-3.6826,3.5722-6.4726,4.7461,2.9248-.2579,5.7041-1.1231,7.8017-2.4288.1084,1.3165-.4922,2.6465-1.6816,3.7295,3.2177-1.2959,5.9375-3.0761,7.876-5.1406.164,1.1885.0263,2.3936-.3956,3.5567-.5244.1728-1.0537.3388-1.58.5009-4.6416,1.4112-9.4473,2.5957-14.2481,3.7852-6.0215,1.4873-12.1455,2.9892-18.5928,3.334-4.4228.2373-8.8896-.0811-13.3056.207,3.2695,2.3125,8.3652,3.5518,13.2617,3.2334-2.8135,1.1074-5.624,2.2158-8.4375,3.3242,4.0098.2881,8.1768-.4043,11.4375-1.8974-1.1582,1.8115-2.7988,3.497-4.833,4.9687,3.4912-1.0176,6.6621-2.4648,9.2764-4.2353-.377,1.665-1.5254,3.2539-3.2705,4.5283,4.7587-1.0069,8.9296-3.0703,11.6083-5.7315.1856,1.836-.8564,3.7129-2.8232,5.0791,4.3164-1.1181,8.0166-3.1416,10.3779-5.6718.6993.7285.6787,1.6591.2295,2.4638-.2177.3946-.5322.7598-.8984,1.1133-2.794.8604-5.6201,1.6543-8.3447,2.419-4.1621,1.1679-8.4053,2.2158-12.7168,3.1513-2.9375.6377-5.9102,1.2197-8.9414,1.6543-5.6133.8096-11.4131,1.1192-17.1651.9112,2.625,2.4238,7.2197,3.9619,11.8897,3.9775-2.9483,1.3711-6.1309,2.5449-9.4805,3.4853,4.2002.3897,8.6064-.1621,12.2461-1.538-1.7715,2.2412-4.4756,4.1894-7.7686,5.6005,5.1407-.4648,10.045-1.9218,13.8711-4.1279-.7968,1.5684-2.0527,3.0508-3.6914,4.3418,4.2373-1.4785,7.8692-3.6338,10.461-6.2041.4091,1.6846-.5108,3.4756-2.4092,4.6953,5.3008-1.4775,9.6719-4.2295,12.0049-7.5683.5605,1.6494.165,3.4199-1.0889,4.9121,3.4717-1.71,6.1943-4.0117,7.79-6.5879.8291,1.7002.4024,3.623-1.1318,5.1162,3.6162-1.5186,6.4111-3.79,7.835-6.3711,1.0703,1.2803.8486,3.3096-.3086,4.7568-.6074.2227-1.1973.4659-1.8057.6827.1768-.0801.3447-.1612.5068-.253-.1767.086-.3466.1778-.5263.2588-19.1035,6.8955-39.7315,12.2588-61.5264,13.9287,3.1299,1.8926,7.8135,2.7168,12.0518,2.1153-2.2119,1.3144-4.4278,2.6298-6.6416,3.9462,4.0263-.2988,7.8369-1.6191,10.3857-3.5976-.4902,2.626-2.4687,5.1357-5.4971,6.9726,3.4151-.8554,6.4854-2.2412,8.8565-4.0029-.5664,1.9844-1.9522,3.8711-3.9854,5.4238,5.7403-1.4462,10.5518-4.291,13.1993-7.7959.9511,2.6006-.7364,5.5098-4.128,7.1182,4.4531-1.376,8.1446-3.7031,10.3213-6.5068.8213,1.7207.6113,3.6181-.5391,5.2617-.541.2285-1.0849.456-1.6279.6836-8.8115,3.7139-17.5674,7.499-25.8164,11.6982-5.5849,2.8438-11.0908,6.0059-13.9502,10.1494,2.711-1.7714,5.5645-3.456,8.543-5.0439-.8496,1.6943-1.7051,3.3994-2.5576,5.0996,2.1279-1.2041,3.791-2.7324,4.8115-4.4121.46,1.7705.0498,3.6279-1.1699,5.2519,2.7783-.9111,4.706-2.7675,4.9043-4.7363.8007,2.0039.5547,4.1651-.6983,6.0674,4.0264-1.7412,7.2393-4.2197,9.1406-7.0488-.3554,1.7099-.7089,3.4209-1.0664,5.1357,3.1739-1.7246,5.752-3.876,7.501-6.2744,1.1348,1.6094.9785,3.5479-.4072,5.0762,3.7695-1.4834,6.3916-4.0684,6.9385-6.8408.7285,2.3115.2851,4.7656-1.2373,6.9209-6.8789,2.4179-13.9668,4.5791-21.3516,6.3085,3.0859,1.0791,6.8877,1.3262,10.2627.6631-1.2012,1.1944-2.5645,2.3233-4.0762,3.3702,2.6543.1826,5.4229-.4346,7.293-1.6338-.8574,1.4414-1.9258,2.833-3.1875,4.1484,3.8848-.3799,7.4463-1.9072,9.4277-4.042.2305,1.3047.0918,2.6309-.4023,3.9063,1.4922-.8057,2.8144-1.7315,3.9209-2.7579.4424,1.2295.4267,2.5245-.0449,3.7432,2.957-1.5166,5.2509-3.5508,6.5595-5.8076.5811.9004,1.0244,1.831,1.3233,2.7832,1.25-1.2148,2.501-2.4238,3.748-3.6377.8028,1.2891.919,2.7422.3301,4.0771,2.9199-1.4365,5.0059-3.5263,5.7812-5.8027,1.0616,1.335,1.6651,2.8125,1.7588,4.2998,2.5967-1.6181,4.3477-3.7685,4.9268-6.0361.5771,1.1484.8613,2.3535.8594,3.5576-.6455.293-1.2891.5918-1.9317.8848-5.7793,2.6367-11.5644,5.2822-17.6006,7.6806-10.9443,4.3623-22.6914,7.9239-34.9345,10.5909,7.8574,1.831,16.7334.3789,24.2304-1.9747-2.0039,1.1641-4.1933,2.2012-6.5332,3.087,3.9541-.668,7.6436-1.9385,10.6661-3.669-.3692,2.3027-2.2364,4.4942-5.0811,5.9668,4.4072-.4453,8.4121-2.2519,10.4854-4.7363.0537,1.8408-.7813,3.6943-2.3692,5.2412,4.209-1.8818,7.4932-4.5684,9.293-7.6143.582,1.7598.792,3.5723.626,5.3643,2.3291-2.2529,4.3418-4.6358,6.0068-7.1055,1.1299,1.6406,1.207,3.5528.2588,5.2315-11.0469,4.9189-22.6055,9.4316-34.0625,13.9609-3.7979,1.4971-7.6319,3.02-10.7774,5.0337-2.9755,1.9082-5.2754,4.2285-6.6787,6.7559,2.2774-1.3379,4.5547-2.668,6.834-3.9942-.8721,1.959-.4756,4.1348,1.0791,5.9199.4951-1.8242,1.4297-3.6015,2.7656-5.2558-.0205,1.5937.5684,3.1914,1.709,4.6191,1.4219-2.1445,3.3272-4.1679,5.6397-5.9863-.3809,2.1562-.7608,4.3164-1.1407,6.4726,2.9073-1.8671,4.7872-4.3515,5.253-6.9472.8906,1.7656,1.0976,3.6621.6015,5.4902,2.875-1.7969,4.9258-4.1094,5.8389-6.5879.9375,2.3477.5342,4.8985-1.1221,7.0879,3.7871-1.4199,6.5176-3.9101,7.2793-6.6426-.3564,2.0293.4903,4.1348,2.3369,5.8086.6983-2.1367,1.6465-4.2422,2.8331-6.291,1.0585,1.9121,1.4169,3.9785,1.0351,5.9903,2.7637-1.9825,4.6299-4.4473,5.3262-7.0469,1.6465,2.2422,1.7617,4.914.3105,7.2051,4.2715-2.4454,6.5362-6.2032,5.9024-9.8101,1.0703,1.8257,1.5801,3.7847,1.497,5.7319,3.0596-3.2734,5.2012-6.8803,6.295-10.6157,2.6045,1.7871,2.2441,4.5391,1.7207,6.938,3.4756-2.5151,5.2675-5.9204,4.8623-9.2398.3408,1.4727.6845,2.9502,1.0244,4.4229,2.4863-2.3779,3.8135-5.2217,3.7568-8.0654,2.2315,2.7265,2.8379,5.9609,1.6709,8.9345,2.5928-2.8271,4.0127-6.0761,4.0821-9.3398,1.3164,1.2256,2.0546,2.6924,2.0986,4.1699,1.1455-2.1455,2.291-4.2812,3.4365-6.4209.0801.0557.1416.1162.2178.1768v37.9009ZM300.4571,166.2295c-.0059,0-.0108.0049-.0147.0098-.001-.0156-.001-.0254-.001-.0401.0049.0098.0069.0206.0157.0303ZM298.419,47.3682l.0117.167c-.1133.0049-.2276.0049-.3428.0097-.0029-.0703-.0058-.1416-.0098-.2119l.3409.0352ZM298.0606,46.9834c-.0342-.6777-.0703-1.3603-.1016-2.0439.0908.0713.1904.1318.3076.1875l.1162,1.7099c-.1162.0401-.2314.0918-.3222.1465ZM298.4834,47.5293c.0166-.0498.0332-.1006.0518-.1504l1.0566.1162c-.3721.0147-.7373.0245-1.1084.0342ZM294.2383,218.1514v9.75c-.2354-.2588-.5166-.4756-.8008-.7393-2.4912-2.3066-9.4131-2.1855-11.4873,2.7373h-14.8545v-19.3779h17.8281c2.7842,3.8506,7.1963,1.7051,8.0225-.1318,0,0,14.582-.1826,18.5117.2275,8.461.8906,13.5498,1.9736,23.1836,6.6895,1.6094.789,1.4121,2.2656-.539,1.8965-3.833-.7227-8.5928-1.1885-12.96-1.0518h-26.9043Z" fill="#fff"/></svg>